<svg aria-hidden="true" style="position:absolute;width:0;height:0;overflow:hidden" xmlns="http://www.w3.org/2000/svg"><defs><symbol id="ellipse" viewBox="0 0 32 32"><path fill="#fff" style="fill:var(--color1, #fff)" d="M32 16c0 8.837-7.163 16-16 16S0 24.837 0 16 7.163 0 16 0s16 7.163 16 16z"/></symbol><symbol id="right-arrow" viewBox="0 0 32 32"><path d="M31.489 14.757 19.933 3.2c-.33-.33-.77-.511-1.238-.511s-.909.181-1.239.511l-1.049 1.05c-.33.329-.511.769-.511 1.238s.182.924.511 1.253l6.742 6.757H1.73A1.71 1.71 0 0 0 .001 15.22v1.484c0 .966.763 1.798 1.729 1.798h21.495l-6.818 6.794c-.33.33-.511.758-.511 1.227s.182.903.511 1.232l1.049 1.046c.33.33.769.51 1.239.51s.908-.182 1.238-.512l11.556-11.556c.331-.331.513-.773.511-1.242a1.745 1.745 0 0 0-.511-1.244z"/></symbol><symbol id="right-arrow" viewBox="0 0 32 32"><path d="M31.489 14.757 19.933 3.2c-.33-.33-.77-.511-1.238-.511s-.909.181-1.239.511l-1.049 1.05c-.33.329-.511.769-.511 1.238s.182.924.511 1.253l6.742 6.757H1.73A1.71 1.71 0 0 0 .001 15.22v1.484c0 .966.763 1.798 1.729 1.798h21.495l-6.818 6.794c-.33.33-.511.758-.511 1.227s.182.903.511 1.232l1.049 1.046c.33.33.769.51 1.239.51s.908-.182 1.238-.512l11.556-11.556c.331-.331.513-.773.511-1.242a1.745 1.745 0 0 0-.511-1.244z"/></symbol><symbol id="Group-4" viewBox="0 0 69 32"><path fill="#fff" style="fill:var(--color1, #fff)" d="M36.571 6.857a6.857 6.857 0 1 1-13.714 0 6.857 6.857 0 0 1 13.714 0zM13.714 6.857A6.857 6.857 0 1 1 0 6.857a6.857 6.857 0 0 1 13.714 0zM59.429 6.857a6.857 6.857 0 1 1-13.714 0 6.857 6.857 0 0 1 13.714 0z"/></symbol></defs></svg>