<svg aria-hidden="true" style="position: absolute; width: 0; height: 0; overflow: hidden;" version="1.1" xmlns="http://www.w3.org/2000/svg" xmlns:xlink="http://www.w3.org/1999/xlink">
<defs>
<symbol id="icon-close-button-modal" viewBox="0 0 32 32">
<path d="M26.667 7.303l-1.97-1.97-7.808 7.808-7.808-7.808-1.97 1.97 7.808 7.808-7.808 7.808 1.97 1.97 7.808-7.808 7.808 7.808 1.97-1.97-7.808-7.808 7.808-7.808z"></path>
</symbol>
<symbol id="icon-menu-burger" viewBox="0 0 32 32">
<path d="M6.4 11.733v-2.133h19.2v2.133h-19.2zM6.4 17.067h19.2v-2.133h-19.2v2.133zM6.4 22.4h19.2v-2.133h-19.2v2.133z"></path>
</symbol>
<symbol id="icon-facebook" viewBox="0 0 16 32">
<path fill="#fff" style="fill: var(--color1, #fff)" d="M14.143 15.972h-4.034v14.865h-6.112v-14.865h-2.907v-5.224h2.907v-3.381c0-2.418 1.142-6.203 6.166-6.203l4.527 0.019v5.071h-3.285c-0.539 0-1.296 0.271-1.296 1.424v3.075h4.567l-0.534 5.219z"></path>
</symbol>
<symbol id="icon-github" viewBox="0 0 32 32">
<path fill="#fff" style="fill: var(--color1, #fff)" d="M16 0c-8.788 0-16 7.212-16 16 0 7.499 5.262 14.312 12.25 16v-5.293c-0.692 0.152-1.33 0.156-2.034-0.052-0.946-0.279-1.714-0.909-2.284-1.869-0.364-0.613-1.008-1.278-1.68-1.23l-0.165-1.868c1.453-0.124 2.711 0.886 3.457 2.14 0.332 0.558 0.713 0.884 1.203 1.029 0.473 0.14 0.982 0.072 1.574-0.137 0.149-1.186 0.692-1.63 1.102-2.255v-0.001c-4.167-0.622-5.828-2.832-6.488-4.578-0.874-2.317-0.405-5.212 1.14-7.041 0.030-0.036 0.084-0.129 0.063-0.194-0.708-2.139 0.155-3.909 0.187-4.097 0.817 0.242 0.95-0.243 3.551 1.337l0.449 0.27c0.188 0.112 0.129 0.048 0.317 0.034 1.086-0.295 2.23-0.458 3.358-0.472 1.136 0.015 2.273 0.178 3.404 0.484l0.145 0.015c-0.013-0.002 0.040-0.009 0.127-0.062 3.248-1.968 3.132-1.324 4.003-1.608 0.032 0.188 0.883 1.987 0.182 4.099-0.095 0.291 2.816 2.956 1.203 7.235-0.659 1.746-2.32 3.957-6.487 4.578v0.001c0.534 0.814 1.176 1.247 1.173 2.927v6.608c6.988-1.688 12.25-8.501 12.25-16 0-8.788-7.212-16-16-16v0z"></path>
</symbol>
<symbol id="icon-telegram" viewBox="0 0 44 32">
<path fill="#fff" style="fill: var(--color1, #fff)" d="M17.343 21.048l-0.675 8.86c0.966 0 1.384-0.387 1.885-0.852l4.527-4.038 9.381 6.412c1.72 0.895 2.933 0.424 3.397-1.477l6.157-26.929 0.002-0.002c0.546-2.374-0.92-3.302-2.596-2.72l-36.194 12.933c-2.47 0.895-2.433 2.18-0.42 2.762l9.253 2.686 21.494-12.552c1.011-0.625 1.931-0.279 1.175 0.346l-17.386 14.57z"></path>
</symbol>
<symbol id="arrow" viewBox="0 0 26 32">
<path fill="none" stroke="#d41443" style="stroke: var(--color1, #d41443)" stroke-linejoin="round" stroke-linecap="round" stroke-miterlimit="4" stroke-width="6.4" d="M5.19 3.2l14.17 12.8-14.17 12.8"></path>
</symbol>
<symbol id="arrow-second" viewBox="0 0 32 32"><path d="M31.489 14.757l-11.556-11.557c-0.33-0.33-0.77-0.511-1.238-0.511s-0.909 0.181-1.239 0.511l-1.049 1.050c-0.33 0.329-0.511 0.769-0.511 1.238s0.182 0.924 0.511 1.253l6.742 6.757h-21.419c-0.966 0-1.729 0.756-1.729 1.722v1.484c0 0.966 0.763 1.798 1.729 1.798h21.495l-6.818 6.794c-0.33 0.33-0.511 0.758-0.511 1.227s0.182 0.903 0.511 1.232l1.049 1.046c0.33 0.33 0.769 0.51 1.239 0.51s0.908-0.182 1.238-0.512l11.556-11.556c0.331-0.331 0.513-0.773 0.511-1.242 0.001-0.471-0.181-0.913-0.511-1.244z"></path></symbol>
<symbol id="logo" viewBox="0 0 52 50"><path d="M20 .9C8.5 4.4 1.6 13.5 1.6 25c0 9.4 4.8 17.6 12.7 21.7 4.1 2.1 4.7.6.9-2.3-2.7-2.2-3.2-3.2-3.2-6.9 0-2.6-.6-4.7-1.5-5.5-1.8-1.5-2-5.4-.2-6.8.7-.6 1.4-2.6 1.5-4.4C12.3 14.2 19.4 8 26.5 8s14.2 6.2 14.7 12.8c.1 1.8.8 3.8 1.5 4.4 1.8 1.4 1.6 5.3-.2 6.8-.9.8-1.5 2.9-1.5 5.5 0 3.7-.5 4.7-3.2 6.9-4.2 3.3-3 4.5 1.7 1.6C46.1 41.9 51 33 51 25.1 51 9.3 34.6-3.5 20 .9z"/><path d="M21.3 12.5c-1.8.8-3.3 1.8-3.3 2.4 0 1.1 5.4 3.1 8.5 3.1 3.1 0 8.5-2 8.5-3.1 0-1.2-6.2-3.9-8.7-3.9-1 .1-3.3.7-5 1.5zM15.6 18.7c-.3.4-.6 1.7-.6 3 0 2.3.1 2.3 11.5 2.3S38 24 38 21.7c0-3.4-.9-3.8-4.1-2.2-3.6 1.9-11.2 1.9-14.8 0-1.6-.8-3.1-1.1-3.5-.8zM12.7 27.6c-1.6 1.7 1.1 2.4 8.9 2.4H30v3.5c0 1.9.5 3.5 1 3.5.6 0 1-1.5 1-3.4 0-3.3.2-3.5 4-3.8 2.2-.2 4-.8 4-1.3 0-1.1-26.2-2-27.3-.9z"/><path d="M15 36.4c0 5.5 1.9 6.6 11.5 6.6S38 41.9 38 36.4c0-2.4-.5-3.4-1.5-3.4-.9 0-1.5.9-1.5 2.4 0 5.6-7.6 6.1-8.7.6-.5-2.9-.8-3-5.9-3H15v3.4zM21.2 47.7c.6 3.2 10.8 2.9 10.8-.2 0-1.1-1.3-1.5-5.6-1.5-4.7 0-5.5.3-5.2 1.7z"/></symbol>
<symbol id="close" viewBox="0 0 32 32">
<path d="M32.011 3.224l-3.224-3.224-12.781 12.781-12.781-12.781-3.224 3.224 12.781 12.781-12.781 12.781 3.224 3.224 12.781-12.781 12.781 12.781 3.224-3.224-12.781-12.781 12.781-12.781z"></path>
</symbol>
</defs>
</svg>
